<svg xmlns="http://www.w3.org/2000/svg" viewBox="0 0 46.71 46.71"><title>x</title><g id="Layer_2" data-name="Layer 2"><g id="Layer_1-2" data-name="Layer 1"><path d="M44.71,46.2a1.49,1.49,0,0,1-1.06-.44L.94,3.06A1.5,1.5,0,0,1,3.06.94L45.77,43.65a1.5,1.5,0,0,1-1.06,2.56Z" style="fill:#fff"/><path d="M2,1a1,1,0,0,1,.71.29L45.41,44A1,1,0,0,1,44,45.41L1.29,2.7A1,1,0,0,1,2,1M2,0A2,2,0,0,0,.58,3.41L43.29,46.12a2,2,0,0,0,2.83-2.83L3.41.58A2,2,0,0,0,2,0Z" style="fill:#fff"/><path d="M2,46.2A1.5,1.5,0,0,1,.94,43.65L43.65.94a1.51,1.51,0,0,1,2.12,0,1.5,1.5,0,0,1,0,2.12L3.06,45.77A1.49,1.49,0,0,1,2,46.2Z" style="fill:#fff"/><path d="M44.71,1a1,1,0,0,1,.71,1.7L2.7,45.41A1,1,0,0,1,1.29,44L44,1.29A1,1,0,0,1,44.71,1m0-1a2,2,0,0,0-1.41.58L.58,43.29a2,2,0,0,0,2.83,2.83L46.12,3.41A2,2,0,0,0,44.71,0Z" style="fill:#fff"/></g></g></svg>